<svg width="130" height="41" viewBox="0 0 130 41" fill="none" xmlns="http://www.w3.org/2000/svg">
    <g clip-path="url(#clip0)">
        <path d="M52.6482 26.8744C51.9144 27.3636 51.0889 27.7305 50.2329 27.9139C48.9182 28.2197 47.6035 28.3725 46.2583 28.3419C44.699 28.3419 43.1703 28.2197 41.6416 27.9445C40.1741 27.6693 39.1346 27.3636 38.4925 27.0578C37.8505 26.7215 37.5447 26.4158 37.5447 26.1101C37.5447 24.9788 37.6976 23.8476 38.0033 22.7469C38.3091 21.5851 38.676 21.0042 39.104 21.0042C39.1957 21.0042 39.9906 21.2488 41.4888 21.7686C43.0175 22.2883 44.1487 22.5329 44.913 22.5329C45.6774 22.5329 46.1666 22.4412 46.4112 22.2883C46.6252 22.1355 46.778 21.8603 46.7475 21.5851C46.7475 21.2794 46.5334 21.0042 46.1054 20.7596C45.6162 20.4845 45.0659 20.2705 44.5156 20.1176C43.8124 19.9036 43.1092 19.659 42.4366 19.3227C41.7334 18.9864 41.0302 18.6195 40.3881 18.1609C39.7155 17.7023 39.1652 17.0908 38.7983 16.357C38.4314 15.5927 38.2174 14.6754 38.2174 13.7582C38.2174 9.47789 40.755 7.33772 45.8608 7.33772C47.5118 7.30714 49.1628 7.42944 50.7832 7.7046C52.159 7.94919 53.1374 8.22436 53.7183 8.49952C54.2992 8.77469 54.5744 9.08043 54.5744 9.38616C54.5438 10.4868 54.2992 11.5875 53.8712 12.5964C53.4126 13.7582 52.9539 14.3391 52.4953 14.3391C52.2508 14.278 51.9756 14.1863 51.7616 14.0945C50.508 13.5442 49.438 13.269 48.6125 13.269C47.787 13.269 47.2061 13.3608 46.9003 13.5136C46.6252 13.6359 46.4417 13.9111 46.4417 14.2168C46.4417 14.5531 46.6557 14.7977 47.0838 15.0118C47.573 15.2563 48.1233 15.4398 48.643 15.5621C49.3462 15.7455 50.0189 15.9901 50.6915 16.3264C51.4253 16.6627 52.0979 17.0602 52.7399 17.5188C53.4126 18.008 53.9629 18.6806 54.3298 19.445C54.7578 20.3316 54.9718 21.3405 54.9718 22.3189C54.9718 23.4196 54.6661 24.5202 54.0546 25.4374C53.6877 25.9572 53.2291 26.4769 52.6482 26.8744Z"
              fill="#32CA6C"></path>
        <path d="M64.1133 21.5851C64.1133 22.8387 64.7248 23.4501 65.8866 23.4501C66.8344 23.389 67.7516 23.1444 68.6077 22.7469C69.7084 22.2883 70.3198 22.0437 70.3504 22.0437C70.7173 22.0437 71.2065 22.5941 71.7874 23.6947C72.3683 24.7954 72.674 25.5903 72.674 26.1101C72.674 26.8744 71.9097 27.4247 70.381 27.8222C68.9134 28.1891 67.3847 28.4031 65.8866 28.4031C64.6637 28.4337 63.4101 28.3114 62.1872 28.0668C61.3311 27.8833 60.5362 27.6082 59.7719 27.1801C58.6406 26.5075 57.6928 25.5597 57.0814 24.3979C56.8368 23.9087 56.6533 23.3584 56.531 22.8387C56.3476 21.9826 56.2559 21.0959 56.2559 20.2093C56.2559 16.7239 57.1731 14.3085 58.9769 12.9939C59.8636 12.3212 60.9031 11.8321 62.0037 11.5875C63.2878 11.3123 64.6331 11.1594 65.9478 11.19C70.809 11.19 73.2243 12.8716 73.2243 16.2653C73.2243 19.873 70.5033 21.6463 65.0306 21.6463L64.1133 21.5851ZM64.0522 17.3659V19.2615C64.6025 19.2921 65.0917 19.0169 65.428 18.5889C65.7949 18.1303 65.9783 17.5494 65.9478 16.9685C65.9478 15.8067 65.642 15.2563 65.0611 15.2258C64.3885 15.2869 64.0522 15.9901 64.0522 17.3659Z"
              fill="#32CA6C"></path>
        <path d="M86.3405 27.8223C86.0042 28.1586 85.2093 28.3114 83.9864 28.3114C82.9468 28.342 81.9379 28.2503 80.929 28.0669C80.1035 27.8834 79.3085 27.5777 78.6359 27.0885C77.2295 26.1407 76.5263 24.184 76.5263 21.2183V16.7545H75.0894C74.8753 16.7545 74.6919 16.5405 74.539 16.0819C74.3556 15.501 74.2944 14.8895 74.2944 14.278C74.2944 13.5748 74.4167 12.9022 74.6613 12.2296C74.9059 11.6487 75.2117 11.343 75.6091 11.343H76.5263V7.85754C76.5263 7.24606 77.1072 6.78745 78.269 6.42057C79.3697 6.05368 80.5315 5.87024 81.6933 5.87024C83.436 5.87024 84.3227 6.29827 84.3227 7.15434V11.343H86.4628C86.952 11.343 87.2272 12.0462 87.2272 13.5137C87.2577 14.3086 87.1355 15.073 86.8909 15.8373C86.6768 16.4488 86.4017 16.7545 86.0348 16.7545H84.3227V22.0132C84.2921 22.4718 84.5672 22.9304 84.9953 23.1139C85.3622 23.2973 85.7596 23.4196 86.1571 23.4502C86.4628 23.4196 86.738 23.6336 86.7686 23.9394C86.8603 24.4286 86.8909 24.9177 86.8909 25.4069C86.8603 26.691 86.7074 27.5165 86.3405 27.8223Z"
              fill="#32CA6C"></path>
        <path d="M100.343 27.8223C100.007 28.1586 99.2121 28.3114 97.9892 28.3114C96.9496 28.342 95.9407 28.2503 94.9318 28.0669C94.1063 27.8834 93.3114 27.5777 92.6387 27.0885C91.2323 26.1407 90.5291 24.184 90.5291 21.2183V16.7545H89.0922C88.8781 16.7545 88.6947 16.5405 88.5418 16.0819C88.3584 15.501 88.2972 14.8895 88.2972 14.278C88.2972 13.5748 88.4195 12.9022 88.6641 12.2296C88.9087 11.6487 89.2145 11.343 89.6119 11.343H90.5291V7.85754C90.5291 7.27664 91.11 6.78745 92.2718 6.42057C93.3725 6.05368 94.5343 5.87024 95.6961 5.87024C97.4388 5.87024 98.3255 6.29827 98.3255 7.15434V11.343H100.466C100.955 11.343 101.23 12.0462 101.23 13.5137C101.261 14.3086 101.138 15.073 100.894 15.8373C100.68 16.4488 100.404 16.7545 100.038 16.7545H98.3255V22.0132C98.2949 22.4718 98.5701 22.9304 98.9981 23.1139C99.365 23.2973 99.7624 23.4196 100.16 23.4502C100.466 23.4196 100.741 23.6336 100.771 23.9394C100.863 24.4286 100.894 24.9177 100.894 25.4069C100.863 26.691 100.68 27.5165 100.343 27.8223Z"
              fill="#32CA6C"></path>
        <path d="M110.861 6.94022V27.3941C110.861 27.6081 110.31 27.761 109.21 27.9139C108.079 28.0362 106.947 28.0973 105.816 28.0973C105.052 28.1279 104.318 28.0668 103.554 27.9445C103.217 27.8527 103.064 27.6693 103.064 27.3941V7.45998C103.064 7.03194 103.615 6.63448 104.685 6.20645C105.816 5.80899 106.978 5.59497 108.201 5.59497C109.974 5.62554 110.861 6.05358 110.861 6.94022Z"
              fill="#32CA6C"></path>
        <path d="M122.693 26.2324V24.5202H122.448C122.326 24.6425 122.173 24.7648 122.02 24.8871C121.592 25.1623 121.134 25.3457 120.675 25.4986C119.911 25.7432 119.116 25.8961 118.29 25.8655C117.495 25.8961 116.731 25.7432 115.997 25.4375C115.386 25.1929 114.835 24.826 114.438 24.3062C114.01 23.7559 113.704 23.1138 113.551 22.4106C113.184 21.1571 113.001 19.3838 113.001 17.1214V13.1468C113.001 12.7493 113.582 12.3518 114.713 11.9544C115.875 11.5569 117.067 11.3429 118.29 11.3735C119.972 11.3735 120.797 11.8015 120.797 12.6576V16.2653C120.797 20.1176 121.103 22.0132 121.715 22.0132C122.081 22.0132 122.265 21.7686 122.265 21.2488V13.1773C122.265 12.7799 122.876 12.3824 124.069 11.985C125.322 11.5875 126.637 11.3735 127.952 11.4041C129.327 11.4041 130.031 11.7709 130.031 12.5353V26.1712C130.031 30.4516 127.126 32.5917 121.317 32.5917C118.26 32.5917 116.181 32.286 115.08 31.7051C114.591 31.4299 114.346 31.1548 114.346 30.8796C114.346 30.421 114.53 29.6567 114.927 28.556C115.325 27.4553 115.661 26.9356 115.997 26.9356C116.272 26.9662 116.548 27.0273 116.792 27.119C117.954 27.4553 119.146 27.6693 120.339 27.6999C121.286 27.6999 121.929 27.6082 122.204 27.3942C122.571 27.0579 122.723 26.6298 122.693 26.2324Z"
              fill="#32CA6C"></path>
        <path fill-rule="evenodd" clip-rule="evenodd"
              d="M0 16.7545C0 7.52117 7.52117 0 16.7545 0C26.0183 0 33.5395 7.52117 33.5089 16.7545C33.5089 26.9661 16.7545 40.5715 16.7545 40.5715C16.7545 40.5715 0 26.9967 0 16.7545ZM12.1378 27.8222C22.4412 27.8222 25.5597 22.5635 26.1712 18.8335C26.2935 18.222 26.3546 17.6411 26.3546 17.0296C26.3546 13.3608 24.245 10.0282 20.9125 8.46895C16.2041 6.23706 10.548 8.25494 8.31606 12.9939C6.08417 17.7328 8.10204 23.389 12.841 25.5903L11.2206 27.8222H11.5263H12.1378Z"
              fill="#32CA6C"></path>
    </g>
    <defs>
        <clipPath id="clip0">
            <rect width="130" height="40.5715" fill="white"></rect>
        </clipPath>
    </defs>
</svg>